<svg xmlns="http://www.w3.org/2000/svg" viewBox="0 0 196.6 66.0">
  <defs>
    <linearGradient id="lg" x1="0" y1="0" x2="0" y2="1">
      <stop offset="0%" stop-color="#008a7a"/>
      <stop offset="20%" stop-color="#00a090"/>
      <stop offset="65%" stop-color="#00d5be"/>
      <stop offset="100%" stop-color="#5ef4de"/>
    </linearGradient>
  </defs>
  <g transform="translate(0.00,54.14) scale(0.027344,-0.027344)">
    <path d="M120 0V1443H422V249H1053V0Z" fill="url(#lg)"/>
  </g>
  <g transform="translate(33.37,54.14) scale(0.027344,-0.027344)">
    <path d="M724.5 -25Q540 -25 404.25 41.75Q268.5 108.5 194.25 229.0Q120 349.5 120 510V1443H422V537Q422 443.5 457.5 375.0Q493 306.5 560.5 268.75Q628 231 725 231Q822 231 889.5 268.75Q957 306.5 992.0 375.0Q1027 443.5 1027 537V1443H1329V510Q1329 350 1255.25 229.5Q1181.5 109 1046.0 42.0Q910.5 -25 724.5 -25Z" fill="url(#lg)"/>
  </g>
  <g transform="translate(76.36,54.14) scale(0.027344,-0.027344)">
    <path d="M120 0V1443H384L1168.5 313.5L915.5 504.5H1042V1443H1343V0H1081L295 1135.5L547.5 944.5H421V0Z" fill="url(#lg)"/>
  </g>
  <g transform="translate(119.52,54.14) scale(0.027344,-0.027344)">
    <path d="M27.5 0 531.5 1443H798V1163H706L345 0ZM298.5 350 372.5 576H1045.5L1119.5 350ZM1072.5 0 712 1163V1443H886.5L1390 0Z" fill="url(#lg)"/>
  </g>
  <g transform="translate(159.09,54.14) scale(0.027344,-0.027344)">
    <path d="M120 0V1443H715.5Q878 1443 993.5 1387.75Q1109 1332.5 1170.5 1229.25Q1232 1126 1232 981V979Q1232 836.5 1161.5 725.75Q1091 615 971 568L1275 0H932.5L664 522.5Q660.5 522.5 656.75 522.5Q653 522.5 649 522.5H422V0ZM422 751.5H683Q795.5 751.5 859.25 812.0Q923 872.5 923 978.5V980.5Q923 1084.5 856.75 1145.5Q790.5 1206.5 679 1206.5H422Z" fill="url(#lg)"/>
  </g>
</svg>