<svg xmlns="http://www.w3.org/2000/svg" viewBox="0 0 153.7 66.0">
  <defs>
    <linearGradient id="lg" x1="0" y1="0" x2="0" y2="1">
      <stop offset="0%" stop-color="#008a7a"/>
      <stop offset="20%" stop-color="#00a090"/>
      <stop offset="65%" stop-color="#00d5be"/>
      <stop offset="100%" stop-color="#5ef4de"/>
    </linearGradient>
  </defs>
  <g transform="translate(0.00,54.14) scale(0.027344,-0.027344)">
    <path d="M120 0V1443H422V249H1053V0Z" fill="url(#lg)"/>
  </g>
  <g transform="translate(33.37,54.14) scale(0.027344,-0.027344)">
    <path d="M459.5 -22Q342 -22 259.25 26.25Q176.5 74.5 133.25 164.75Q90 255 90 380V1072H382V440.5Q382 335.5 431.25 277.75Q480.5 220 579 220Q628 220 667.25 237.0Q706.5 254 734.75 285.25Q763 316.5 777.75 360.0Q792.5 403.5 792.5 456V1072H1084.5V0H792.5V176.5H786.5Q759 115.5 713.5 70.75Q668 26 604.5 2.0Q541 -22 459.5 -22Z" fill="url(#lg)"/>
  </g>
  <g transform="translate(66.87,54.14) scale(0.027344,-0.027344)">
    <path d="M95 0V1072H387V895.5H393Q434.5 988 516.5 1041.0Q598.5 1094 720 1094Q896.5 1094 993.0 987.25Q1089.5 880.5 1089.5 692V0H797.5V631.5Q797.5 736.5 748.25 794.25Q699 852 600.5 852Q535.5 852 487.5 822.25Q439.5 792.5 413.25 739.5Q387 686.5 387 616V0Z" fill="url(#lg)"/>
  </g>
  <g transform="translate(100.38,54.14) scale(0.027344,-0.027344)">
    <path d="M414 -17Q307 -17 225.75 24.5Q144.5 66 99.0 139.25Q53.5 212.5 53.5 307V308.5Q53.5 406.5 102.5 476.0Q151.5 545.5 244.75 585.75Q338 626 471 634.5L889 660.5V479L515 454.5Q430.5 449.5 386.5 415.0Q342.5 380.5 342.5 323.5V322Q342.5 263 387.75 229.5Q433 196 508.5 196Q574 196 625.25 221.5Q676.5 247 706.25 291.5Q736 336 736 391.5V716.5Q736 788 690.75 829.25Q645.5 870.5 559.5 870.5Q478 870.5 429.75 836.75Q381.5 803 370.5 751L368.5 741.5H101.5L102.5 753.5Q111 853 168.5 929.75Q226 1006.5 328.25 1050.25Q430.5 1094 572 1094Q710.5 1094 812.75 1049.25Q915 1004.5 971.5 923.75Q1028 843 1028 735V0H736V159.5H730Q699.5 105 652.25 65.25Q605 25.5 544.75 4.25Q484.5 -17 414 -17Z" fill="url(#lg)"/>
  </g>
  <g transform="translate(132.48,54.14) scale(0.027344,-0.027344)">
    <path d="M95 0V1072H387V885H393Q416.5 984 479.75 1039.0Q543 1094 636.5 1094Q661 1094 682.75 1090.75Q704.5 1087.5 721 1082.5V825.5Q703 833 675.0 837.5Q647 842 615 842Q543 842 491.75 814.0Q440.5 786 413.75 732.0Q387 678 387 600V0Z" fill="url(#lg)"/>
  </g>
</svg>